<?xml version="1.0" encoding="utf-8"?>
<!-- Generator: Adobe Illustrator 25.0.0, SVG Export Plug-In . SVG Version: 6.00 Build 0)  -->
<svg version="1.1" id="Layer_1" xmlns="http://www.w3.org/2000/svg" xmlns:xlink="http://www.w3.org/1999/xlink" x="0px" y="0px"
	 viewBox="0 0 1503.71 792" style="enable-background:new 0 0 1503.71 792;" xml:space="preserve">
<style type="text/css">
	.st0{fill:#DA1C5C;stroke:#000000;stroke-miterlimit:10;}
	.st1{fill:#662D91;}
	.st2{font-family:'Verdana-Bold';}
	.st3{font-size:24px;}
	.st4{fill:#2E3192;}
	.st5{font-family:'Verdana';}
	.st6{fill:#662D91;stroke:#000000;stroke-miterlimit:10;}
	.st7{fill:#EC008C;}
	.st8{fill:#00A14B;stroke:#000000;stroke-miterlimit:10;}
	.st9{fill:#EC008C;stroke:#000000;stroke-miterlimit:10;}
	.st10{fill:#FFF200;}
	.st11{fill:#FDC88F;stroke:#000000;stroke-miterlimit:10;}
	.st12{fill:#F7941D;stroke:#000000;stroke-miterlimit:10;}
	.st13{font-size:23.3186px;}
	.st14{fill:#F26522;}
	.st15{fill:#00AEEF;stroke:#000000;stroke-miterlimit:10;}
	.st16{fill:#FFF200;stroke:#000000;stroke-miterlimit:10;}
	.st17{fill:#C49A6C;}
	.st18{fill:#ED1C24;stroke:#000000;stroke-miterlimit:10;}
	.st19{fill:#FFFFFF;}
</style>
<rect x="10.95" y="423.77" class="st0" width="474.19" height="50.09"/>
<text transform="matrix(1.1559 0 0 1 21.433 456.473)" class="st1 st2 st3">Strawberry Protein Smoothie</text>
<text transform="matrix(0.4089 0 0 1 18.494 495.4603)" class="st4 st5 st3">strawberries, banana, vanilla protein powder, nonfat Greek yogurt, unsweetened almond milk</text>
<rect x="505.52" y="423.77" class="st6" width="474.19" height="50.09"/>
<g>
	<text transform="matrix(1.2925 0 0 1 563.5742 455.2754)" class="st7 st2 st3">Triple Berry Smoothie</text>
</g>
<text transform="matrix(0.4089 0 0 1 524.5124 497.017)" class="st4 st5 st3">triple berry mix, banana, chia seeds, vanilla protein powder, unsweetened almond milk</text>
<rect x="1000.1" y="423.29" class="st8" width="474.19" height="50.09"/>
<g>
	<text transform="matrix(0.9369 0 0 1 1089.5608 456.473)" class="st7 st2 st3">Watermelon Smoothie</text>
</g>
<text transform="matrix(0.4089 0 0 1 1096.7688 499.3013)" class="st4 st5 st3">watermelon, strawberries, milk, lemon juice, Splenda</text>
<rect x="1000.1" y="279.29" class="st9" width="474.19" height="50.09"/>
<g>
	<text transform="matrix(1.149 0 0 1 1010.5953 313.3808)" class="st10 st2 st3">Strawberry Banana Smoothie</text>
</g>
<text transform="matrix(0.4089 0 0 1 1053.9327 350.5087)" class="st4 st5 st3">strawberries, banana, spinach, almond milk, ice, nonfat pplain Greek yogurt</text>
<rect x="505.52" y="279.29" class="st11" width="474.19" height="50.09"/>
<g>
	<text transform="matrix(1.0806 0 0 1 623.5242 313.3806)" class="st7 st2 st3">Peach Smoothie</text>
</g>
<text transform="matrix(0.4089 0 0 1 609.3302 350.5086)" class="st4 st5 st3">banana, peach, low fat peach yogurt, orange juice, ice</text>
<rect x="14.07" y="279.29" class="st12" width="474.19" height="50.09"/>
<g>
	<text transform="matrix(1.2041 0 0 1 118.0551 313.8298)" class="st1 st2 st13">Mango Smoothie</text>
</g>
<text transform="matrix(0.4089 0 0 1 85.2875 350.5087)" class="st4 st5 st3">frozen mango slices, light coconut milk, flaxseed meal, frozen banana</text>
<rect x="505.52" y="547.6" class="st14" width="474.19" height="50.09"/>
<text transform="matrix(1.1559 0 0 1 659.2657 579.5057)" class="st1 st2 st3">Fruit Cups</text>
<text transform="matrix(0.4089 0 0 1 606.5046 619.1141)" class="st4 st5 st3">Chopped up fruits of your choice packed in 100% fruit juice</text>
<rect x="1000.1" y="139.95" class="st15" width="474.19" height="50.09"/>
<g>
	<text transform="matrix(1.0409 0 0 1 1140.506 174.7214)" class="st4 st2 st3">Keto Smoothie</text>
</g>
<text transform="matrix(0.4089 0 0 1 1036.3599 213.7855)" class="st4 st5 st3">cold water, baby spinach, cilantro, ginger, English cucumber, lemon, frozen avocado</text>
<rect x="505.52" y="139.95" class="st16" width="474.19" height="50.09"/>
<g>
	<text transform="matrix(1.1925 0 0 1 610.213 174.5596)" class="st17 st2 st3">Banana Smoothie</text>
</g>
<text transform="matrix(0.4089 0 0 1 518.6807 213.7856)" class="st4 st5 st3">frozen banana, nonfat plain Greek yogurt, ground flax, plain almond milk, vanilla extract</text>
<rect x="16.55" y="139.71" class="st18" width="474.19" height="50.09"/>
<g>
	<text transform="matrix(1.0795 0 0 1 122.4023 170.1407)" class="st19 st2 st3">Apple Smoothie</text>
</g>
<text transform="matrix(0.3683 0 0 1 11.5889 214.6606)" class="st4 st5 st3">frozen apple sauce, choice of milk, rolled oats, nut butter, ground flax seed, maple syrup, ground cinnamin</text>
</svg>
